<?xml version="1.0" encoding="utf-8"?>
<!-- Generator: Adobe Illustrator 19.0.1, SVG Export Plug-In . SVG Version: 6.00 Build 0)  -->
<svg version="1.1" id="Layer_1" xmlns="http://www.w3.org/2000/svg" xmlns:xlink="http://www.w3.org/1999/xlink" x="0px" y="0px"
	 viewBox="163.3 360.6 711.3 80.1" style="enable-background:new 163.3 360.6 711.3 80.1;" xml:space="preserve">
<style type="text/css">
	.st0{clip-path:url(#SVGID_2_);fill:#FF4E2A;}
	.st1{fill:#FF947F;}
	.st2{fill:#FF4E2A;}
	.st3{clip-path:url(#SVGID_4_);fill:#FF4E2A;}
	.st4{clip-path:url(#SVGID_6_);fill:#FF947F;}
	.st5{fill:#FFFAE5;}
	.st6{enable-background:new    ;}
	.st7{fill:#071D26;}
</style>
<g>
	<g>
		<g>
			<defs>
				<polygon id="SVGID_1_" points="379,411.5 342,411.3 329,384.3 336,351.3 388,351.3 				"/>
			</defs>
			<clipPath id="SVGID_2_">
				<use xlink:href="#SVGID_1_"  style="overflow:visible;"/>
			</clipPath>
			<path class="st0" d="M338.8,430.2v-61.7c0-1,0.8-1.8,1.8-1.8h36.9c0.9,0,1.6,0.7,1.6,1.6v7c0,0.9-0.7,1.6-1.6,1.6h-27.7v17.3
				h24.9c0.9,0,1.6,0.7,1.6,1.6v6.8c0,0.9-0.7,1.6-1.6,1.6h-24.9v17.3h27.7c0.9,0,1.6,0.7,1.6,1.6v7c0,0.9-0.7,1.6-1.6,1.6h-36.9
				C339.6,432,338.8,431.2,338.8,430.2z M376.4,394.3v10"/>
		</g>
	</g>
	<path class="st1" d="M216.1,429.7l-0.7-6.7c-2.9,4.8-9.6,9.7-20,9.7c-17,0-32.1-12.5-32.1-34.1c0-21.5,15.9-34,32.9-34
		c14.8,0,24.6,7.9,28.7,17.7c0.5,1.2-0.1,2.5-1.3,3l-6.1,2.3c-1.1,0.4-2.4-0.1-2.9-1.2c-2.7-6.4-8.9-11.6-18.3-11.6
		c-10.6,0-21.6,7.6-21.6,23.8c0,15.9,10.3,23.9,21.6,23.9c13.2,0,18.1-9,18.7-14.6h-20c-1,0-1.8-0.8-1.8-1.8V400
		c0-1,0.8-1.8,1.8-1.8h27.6c1.4,0,2.6,1.2,2.6,2.6v28.7c0,1-0.8,1.8-1.8,1.8h-5.6C216.9,431.2,216.2,430.6,216.1,429.7z"/>
	<path class="st1" d="M196.2,364.6c-15.6,0-30.4,10.7-32.6,29.2c-0.1,1.1,0.8,2.1,1.9,2.1h7.5c1,0,1.8-0.7,1.9-1.6
		c1.8-13.2,11.8-19.5,21.4-19.5c9.4,0,15.6,5.1,18.3,11.6c0.5,1.1,1.8,1.7,2.9,1.2l6.1-2.3c1.2-0.5,1.8-1.8,1.3-3
		C220.7,372.5,210.9,364.6,196.2,364.6z"/>
	<g>
		<path class="st2" d="M523,376.3v52.8c0,1.2-0.9,2.1-2.1,2.1H514c-1.2,0-2.1-0.9-2.1-2.1v-52.8h-19.1c-1.2,0-2.1-0.9-2.1-2.1V368
			c0-1.2,0.9-2.1,2.1-2.1h49.3c1.2,0,2.1,0.9,2.1,2.1v6.2c0,1.2-0.9,2.1-2.1,2.1H523z"/>
		<path class="st1" d="M522.9,376.3h-11.1v53.6c0,1.2,0.9,2.1,2.1,2.1h6.9c1.2,0,2.1-0.9,2.1-2.1V376.3z"/>
	</g>
	<path class="st1" d="M340.5,432h36.9c0.9,0,1.6-0.7,1.6-1.6v-7c0-0.9-0.7-1.6-1.6-1.6h-36.9c-1,0-1.8,0.8-1.8,1.8v6.7
		C338.8,431.2,339.6,432,340.5,432z"/>
	<path class="st1" d="M338.8,378.1v50.7c0,1,0.8,1.8,1.8,1.8h9.3v-52.1c0-1.2-1-2.2-2.2-2.2h-7.1
		C339.6,376.3,338.8,377.1,338.8,378.1z"/>
	<g>
		<g>
			<defs>
				<polygon id="SVGID_3_" points="705.4,411.5 668.4,411.3 655.4,384.3 662.4,351.3 714.4,351.3 				"/>
			</defs>
			<clipPath id="SVGID_4_">
				<use xlink:href="#SVGID_3_"  style="overflow:visible;"/>
			</clipPath>
			<path class="st3" d="M665.3,430.2v-61.7c0-1,0.8-1.8,1.8-1.8H704c0.9,0,1.6,0.7,1.6,1.6v7c0,0.9-0.7,1.6-1.6,1.6h-27.7v17.3h24.9
				c0.9,0,1.6,0.7,1.6,1.6v6.8c0,0.9-0.7,1.6-1.6,1.6h-24.9v17.3H704c0.9,0,1.6,0.7,1.6,1.6v7c0,0.9-0.7,1.6-1.6,1.6h-36.9
				C666.1,432,665.3,431.2,665.3,430.2z M702.9,394.3v10"/>
		</g>
	</g>
	<path class="st1" d="M667,432h36.9c0.9,0,1.6-0.7,1.6-1.6v-7c0-0.9-0.7-1.6-1.6-1.6H667c-1,0-1.8,0.8-1.8,1.8v6.7
		C665.2,431.2,666,432,667,432z"/>
	<path class="st1" d="M665.2,378.1v50.7c0,1,0.8,1.8,1.8,1.8h9.3v-52.1c0-1.2-1-2.2-2.2-2.2H667C666,376.3,665.2,377.1,665.2,378.1z
		"/>
	<path class="st1" d="M280.2,405.5h-8.1V429c0,1.3-1,2.3-2.3,2.3h-6.6c-1.3,0-2.3-1-2.3-2.3v-60.3c0-1.5,1.2-2.7,2.7-2.7H286
		c12.6,0,20.4,8.7,20.4,19.8c0,9.3-5.6,16.4-14.7,18.6l12.9,23.5c0.8,1.5-0.3,3.4-2,3.4h-7.3c-0.8,0-1.6-0.5-2-1.2L280.2,405.5z
		 M284,395.7c6.8,0,11.2-4,11.2-9.9c0-6.1-4.4-10-11.2-10h-11.9v20L284,395.7L284,395.7z"/>
	<path class="st1" d="M286,365.9h-19.8l3.1,9.4l14.7,0.4c6.8,0,11.2,3.9,11.2,10c0,6-4.4,9.9-11.2,9.9h-11.9v9.8
		c0,0,9.8,0.7,19.6-1.1c9-1.6,14.7-9.3,14.7-18.6C306.4,374.7,298.6,365.9,286,365.9z"/>
	<g>
		<path class="st2" d="M779.6,385.7c-1.2,0.4-2.6-0.3-3-1.5c-1.4-3.7-5-7.8-12.2-7.8c-6.6,0-11.2,4.4-11.2,9.4
			c0,4.1,2.6,7.3,7.6,8.4l9.4,1.9c11.5,2.3,17.7,9.6,17.7,18.8c0,10.1-8.2,19.8-23.1,19.8c-15.2,0-22.9-9-24.9-17.7
			c-0.3-1.3,0.5-2.6,1.7-2.9l5.6-1.6c1.3-0.4,2.7,0.4,3,1.8c1.5,5.8,6.3,10.6,14.5,10.6c7.8,0,11.9-4,11.9-9c0-4.2-3.1-7.6-8.7-8.8
			l-9.2-1.9c-9.9-2-16.6-8.6-16.6-18.3c0-11,10-20,22.2-20c13.7,0,20,7.5,22.2,14.3c0.4,1.3-0.3,2.7-1.6,3.1L779.6,385.7z"/>
		<path class="st1" d="M764.3,376.4c7.2,0,10.8,4.1,12.2,7.8c0.5,1.2,1.8,1.9,3,1.5l5.3-1.7c1.3-0.4,2-1.8,1.6-3.1
			c-2.2-6.8-8.5-14.3-22.2-14.3c-12.2,0-22.2,9-22.2,20c0,9.8,6.6,16.3,16.6,18.3l3.9,0.8c0.4,0.1,0.8-0.1,1-0.4l5.7-8
			c0.4-0.6,0.1-1.4-0.6-1.5l-7.9-1.6c-5.1-1.1-7.6-4.2-7.6-8.4C753.1,380.8,757.7,376.4,764.3,376.4z"/>
	</g>
	<g>
		<path class="st1" d="M863.6,385.7c-1.2,0.4-2.6-0.3-3-1.5c-1.4-3.7-5-7.8-12.2-7.8c-6.6,0-11.2,4.4-11.2,9.4
			c0,4.1,2.6,7.3,7.6,8.4l9.4,1.9c11.5,2.3,17.7,9.6,17.7,18.8c0,10.1-8.2,19.8-23.1,19.8c-15.2,0-22.9-9-24.9-17.7
			c-0.3-1.3,0.5-2.6,1.7-2.9l5.6-1.6c1.3-0.4,2.7,0.4,3,1.8c1.5,5.8,6.3,10.6,14.5,10.6c7.8,0,11.9-4,11.9-9c0-4.2-3.1-7.6-8.7-8.8
			l-9.2-1.9c-9.9-2-16.6-8.6-16.6-18.3c0-11,10-20,22.2-20c13.7,0,20,7.5,22.2,14.3c0.4,1.3-0.3,2.7-1.6,3.1L863.6,385.7z"/>
		<path class="st2" d="M848.3,376.4c7.2,0,10.8,4.1,12.2,7.8c0.5,1.2,1.8,1.9,3,1.5l5.3-1.7c1.3-0.4,2-1.8,1.6-3.1
			c-2.2-6.8-8.5-14.3-22.2-14.3c-12.2,0-22.2,9-22.2,20c0,9.8,6.6,16.3,16.6,18.3l3.9,0.8c0.4,0.1,0.8-0.1,1-0.4l5.7-8
			c0.4-0.6,0.1-1.4-0.6-1.5l-7.9-1.6c-5.1-1.1-7.6-4.2-7.6-8.4C837.1,380.8,841.7,376.4,848.3,376.4z"/>
	</g>
	<path class="st2" d="M618.6,412.8l-28.8-45c-0.5-0.8-1.3-1.3-2.4-1.3h-1.6l0.1,15.7l31.6,48.5c0.4,0.6,1.1,1,1.8,1h8.1
		c1.2,0,2.2-1,2.2-2.2v-61.1c0-1.1-0.9-2-2-2h-7.1c-1.1,0-2,0.9-2,2L618.6,412.8L618.6,412.8z"/>
	<g>
		<path class="st1" d="M453.5,414.6h-27.6l-5.6,15.1c-0.3,0.8-1.1,1.3-1.9,1.3h-7.3c-1.4,0-2.4-1.4-1.9-2.8L433,367
			c0.3-0.8,1.1-1.3,1.9-1.3h6.3c3.1,0,5.8,1.9,7,4.8l22.5,57.8c0.5,1.3-0.5,2.8-1.9,2.8h-7.7c-0.8,0-1.6-0.5-1.9-1.3L453.5,414.6z
			 M429.8,404.4h19.9l-10-26.8L429.8,404.4z"/>
		<path class="st2" d="M449.7,404.4h-6.3h-13.6l9.9-26.7l3.9,9.7l9.3-4l-6.1-16.4c-0.3-0.8-1.1-1.3-1.9-1.3h-10.1
			c-0.8,0-1.6,0.5-1.9,1.3l-23.8,61.3c-0.5,1.3,0.5,2.8,1.9,2.8h7.3c0.8,0,1.6-0.5,1.9-1.3l5.6-15.1h27.6L449.7,404.4z"/>
		<path class="st1" d="M439.7,377.9l6.4,16.7l9.5-5.3l-8.6-22.5c-0.3-0.8-1.1-1.3-1.9-1.3h-3.4c-1.1,0-2,0.9-2,2V377.9z"/>
	</g>
	<path class="st2" d="M195,407.9h19.8c-0.6,5.6-5.5,14.6-18.7,14.6c-1.3,0-2.6-0.1-3.9-0.3c-0.8-0.1-1.6,0.5-1.6,1.3v7.6
		c0,0.7,0.5,1.3,1.2,1.3c1.2,0.1,2.4,0.2,3.6,0.2c10.4,0,17.1-4.9,20-9.7l0.7,6.7c0.1,0.9,0.9,1.6,1.8,1.6h5.6c1,0,1.8-0.8,1.8-1.8
		v-28.6c0-1.4-1.2-2.6-2.6-2.6H195c-1,0-1.8,0.8-1.8,1.8v6.1C193.2,407.1,194,407.9,195,407.9z"/>
	<g>
		<g>
			<defs>
				<rect id="SVGID_5_" x="564.4" y="356.4" width="21.7" height="84.3"/>
			</defs>
			<clipPath id="SVGID_6_">
				<use xlink:href="#SVGID_5_"  style="overflow:visible;"/>
			</clipPath>
			<path class="st4" d="M617.5,430.7l-31.6-48.5v47.5c0,1.1-0.9,2-2,2h-7.1c-1.1,0-2-0.9-2-2v-61c0-1.3,1.1-2.4,2.4-2.4h10.4
				c0.8,0,1.6,0.4,2,1.1l29,45.2v-44.2c0-1.1,0.9-2,2-2h7.1c1.1,0,2,0.9,2,2v61.2c0,1.2-1,2.2-2.2,2.2h-8.1
				C618.6,431.7,617.9,431.4,617.5,430.7z"/>
		</g>
	</g>
	<path class="st2" d="M272.1,365.9H261v63c0,1.3,1,2.3,2.3,2.3h6.5c1.3,0,2.3-1,2.3-2.3V365.9z"/>
</g>
<rect x="-2978.3" y="7920.6" class="st5" width="1165.4" height="54.6"/>
<g>
	<text transform="matrix(1 0 0 1 -2841.1143 7948.7949)" class="st7" style="font-family:'ArialMT'; font-size:12.8748px;">© Copyright 2015 Great Minds</text>
</g>
</svg>
