<svg id="Layer_1" data-name="Layer 1" xmlns="http://www.w3.org/2000/svg" viewBox="0 0 366.57 250.85"><defs><style>.cls-1{fill:#231f20;}</style></defs><title>Great-Minds-Logo</title><path class="cls-1" d="M54,215.16h-2v3.67h2c1.37,0,2.11-.77,2.11-1.84s-.74-1.83-2.11-1.83" transform="translate(0.28 -0.15)"/><path class="cls-1" d="M214,215.42h-1.94v8.76H214c2.3,0,4.18-1.34,4.18-4.37s-1.88-4.39-4.18-4.39" transform="translate(0.28 -0.15)"/><polygon class="cls-1" points="92.74 221.07 96.37 221.07 94.58 215.85 92.74 221.07 92.74 221.07"/><path class="cls-1" d="M349.32.15H163.12a2.74,2.74,0,0,0-2.73,2.75V188.59H-.28V251H265.59V194.11h83.73a2.75,2.75,0,0,0,2.73-2.76V2.9A2.74,2.74,0,0,0,349.32.15M32,224.61a3.56,3.56,0,0,0,3.7-2.48h-4.5v-2.85h7.62v8.08h-2.7l-.21-1.54a4.93,4.93,0,0,1-4.2,1.86,7.49,7.49,0,0,1-7.59-7.87,7.64,7.64,0,0,1,7.8-7.89c4.28,0,6.27,2.56,6.92,4.67l-3.21,1.13a3.6,3.6,0,0,0-3.71-2.64,4.36,4.36,0,0,0-4.42,4.73c0,3.15,2.08,4.8,4.5,4.8m23.9,2.75-2.68-5.63H52.06v5.63H48.72V212.24h5.93A4.59,4.59,0,0,1,59.51,217a4.34,4.34,0,0,1-3,4.27l3.05,6.12Zm22.51,0h-9.5V212.24h9.48v3.18H72.26v2.88h5.58v3H72.26v2.9h6.17v3.2Zm19.8,0-1.08-3.07H91.37l-1.08,3.07H86.78l5.64-15.12h3.87l5.57,15.12Zm22-11.9h-4.62v11.9h-3.34v-11.9h-4.61v-3.22h12.57v3.22Zm41.6,11.9h-3.27v-10l-3.91,10h-2.71l-3.9-9.9v9.9h-3.17V212.24h4.35l4.12,10.21,3.91-10.21h4.58v15.12Zm13.58,0H172V212.24h3.38v15.12Zm23.14,0H195l-6.17-9.94v9.94h-3.32V212.24h4.06l5.62,9.19v-9.19h3.34v15.12Zm15.58,0h-5.41V212.24h5.43c4.5,0,7.52,2.9,7.52,7.57s-3,7.55-7.54,7.55m21.85.32c-4.14,0-5.91-2.71-6.12-4.84l3.06-.75a2.8,2.8,0,0,0,3.11,2.6c1.31,0,2.11-.64,2.11-1.57,0-.77-.62-1.33-1.61-1.52l-2-.38c-2.54-.5-4.08-2.2-4.08-4.44a5.08,5.08,0,0,1,5.36-4.86c3.74,0,5.16,2.26,5.47,4l-3,.85a2.26,2.26,0,0,0-2.49-1.89,1.84,1.84,0,0,0-2.05,1.62c0,.72.44,1.25,1.48,1.45l2,.38c2.85.53,4.33,2.39,4.33,4.54,0,2.37-2,4.78-5.54,4.78m110.61-39.09H165.85V5.66H346.59V188.59Z" transform="translate(0.28 -0.15)"/><path class="cls-1" d="M366.29,186.08a4.92,4.92,0,1,1-4.91-4.79,4.81,4.81,0,0,1,4.91,4.79Zm-8.62,0a3.71,3.71,0,0,0,3.74,3.82,3.66,3.66,0,0,0,3.65-3.79,3.7,3.7,0,1,0-7.39,0Zm2.95,2.51h-1.11V183.8a9.53,9.53,0,0,1,1.84-.15A3,3,0,0,1,363,184a1.36,1.36,0,0,1,.46,1.06,1.23,1.23,0,0,1-1,1.11v.05a1.43,1.43,0,0,1,.88,1.17,3.5,3.5,0,0,0,.35,1.2h-1.2a4.47,4.47,0,0,1-.38-1.17c-.09-.53-.38-.76-1-.76h-.53v1.93Zm0-2.72h.53c.61,0,1.11-.2,1.11-.7s-.32-.73-1-.73a2.59,2.59,0,0,0-.61.06v1.37Z" transform="translate(0.28 -0.15)"/></svg>