<svg xmlns="http://www.w3.org/2000/svg" viewBox="0 0 360 360"><defs><style>.cls-1{fill:#0f0708;}</style></defs><g id="Logos"><path class="cls-1" d="M284.51,72h-209A3.49,3.49,0,0,0,72,75.46V284.54A3.49,3.49,0,0,0,75.49,288h209a3.49,3.49,0,0,0,3.49-3.46V75.46A3.49,3.49,0,0,0,284.51,72Zm-2.79,209.72H78.28V78.28H281.72Z"/><path class="cls-1" d="M215.49,186.59h-8.93v24.88h8.9c7.44,0,12.41-4.74,12.41-12.43S222.9,186.59,215.49,186.59Zm-.24,19.64h-3.2V191.81h3.2c3.79,0,6.88,2.25,6.88,7.23S219,206.23,215.25,206.23Z"/><polygon class="cls-1" points="115.73 203.4 108.95 186.59 101.79 186.59 101.79 211.47 107.01 211.47 107.01 195.19 113.43 211.47 117.88 211.47 124.32 194.98 124.32 211.47 129.71 211.47 129.71 186.59 122.16 186.59 115.73 203.4"/><path class="cls-1" d="M253.44,196.65l-3.31-.62c-1.71-.32-2.43-1.2-2.43-2.39,0-1.37,1.31-2.67,3.37-2.67,3,0,3.93,2,4.1,3.13l4.94-1.4c-.53-2.92-2.85-6.64-9-6.64-4.73,0-8.82,3.3-8.82,8,0,3.69,2.53,6.49,6.71,7.3l3.37.63c1.63.32,2.64,1.23,2.64,2.5,0,1.54-1.32,2.59-3.48,2.59-3.37,0-4.9-2-5.11-4.28l-5,1.23c.34,3.51,3.27,8,10.08,8,5.88,0,9.12-4,9.12-7.87C260.57,200.59,258.13,197.54,253.44,196.65Z"/><polygon class="cls-1" points="184.79 201.72 175.54 186.59 168.87 186.59 168.87 211.47 174.33 211.47 174.33 195.11 184.48 211.47 190.28 211.47 190.28 186.59 184.79 186.59 184.79 201.72"/><rect class="cls-1" x="146.31" y="186.59" width="5.56" height="24.88"/><polygon class="cls-1" points="180.13 163.56 189.31 163.56 189.31 158.69 180.13 158.69 180.13 153.95 190.25 153.95 190.25 148.72 174.64 148.72 174.64 173.6 190.28 173.6 190.28 168.33 180.13 168.33 180.13 163.56"/><path class="cls-1" d="M220.31,148.72H214l-9.29,24.88h5.78l1.77-5h9.52l1.78,5h6ZM214,163.49l3-8.59,3,8.59Z"/><path class="cls-1" d="M113.22,153.39a5.93,5.93,0,0,1,6.11,4.35l5.29-1.86c-1.08-3.48-4.35-7.69-11.4-7.69a12.58,12.58,0,0,0-12.83,13c0,7.86,5.63,12.95,12.48,12.95,3.51,0,5.84-1.47,6.91-3.06l.36,2.53h4.44V160.3H112V165h7.4c-.31,1.41-2,4.08-6.09,4.08s-7.4-2.71-7.4-7.9C106,155.63,109.88,153.39,113.22,153.39Z"/><polygon class="cls-1" points="239.4 154.02 246.97 154.02 246.97 173.6 252.47 173.6 252.47 154.02 260.08 154.02 260.08 148.72 239.4 148.72 239.4 154.02"/><path class="cls-1" d="M159.27,156.51c0-4.43-3.14-7.79-8-7.79H141.5V173.6H147v-9.26h1.95l4.41,9.26h6.05l-5-10.07A7.14,7.14,0,0,0,159.27,156.51Zm-9,3.05H147v-6h3.24c2.26,0,3.47,1.16,3.47,3S152.49,159.56,150.23,159.56Z"/><path class="cls-1" d="M296.76,281.66v6.23h-1.09v-6.23h-2.13v-1.07h5.35v1.07Z"/><path class="cls-1" d="M305.78,287.89V284c0-.44,0-1.07,0-1.28-.09.21-.29.73-.47,1.14L303.56,288l-1.75-4.11c-.18-.41-.39-.93-.47-1.14,0,.21,0,.84,0,1.28v3.86h-1v-7.3h1.12l1.64,3.89c.18.41.4.95.5,1.25.1-.3.31-.82.49-1.25l1.6-3.89h1.17v7.3Z"/></g></svg>