<?xml version="1.0" encoding="utf-8"?>
<!-- Generator: Adobe Illustrator 19.0.1, SVG Export Plug-In . SVG Version: 6.00 Build 0)  -->
<svg version="1.1" id="Layer_1" xmlns="http://www.w3.org/2000/svg" xmlns:xlink="http://www.w3.org/1999/xlink" x="0px" y="0px"
	 viewBox="0 0 827.3 136.4" enable-background="new 0 0 827.3 136.4" xml:space="preserve">
<g>
	<defs>
		<rect id="SVGID_1_" x="-1966" y="3370.9" width="1157.1" height="919"/>
	</defs>
	<clipPath id="SVGID_2_">
		<use xlink:href="#SVGID_1_"  overflow="visible"/>
	</clipPath>
</g>
<g>
	<g>
		<defs>
			<polygon id="SVGID_3_" points="271,82.9 234,82.7 221,55.7 228,22.7 280,22.7 			"/>
		</defs>
		<clipPath id="SVGID_4_">
			<use xlink:href="#SVGID_3_"  overflow="visible"/>
		</clipPath>
		<path clip-path="url(#SVGID_4_)" fill="#FF4E2A" d="M230.8,101.6V39.9c0-1,0.8-1.8,1.8-1.8h36.9c0.9,0,1.6,0.7,1.6,1.6v7
			c0,0.9-0.7,1.6-1.6,1.6h-27.7v17.3h24.9c0.9,0,1.6,0.7,1.6,1.6v6.8c0,0.9-0.7,1.6-1.6,1.6h-24.9v17.3h27.7c0.9,0,1.6,0.7,1.6,1.6
			v7c0,0.9-0.7,1.6-1.6,1.6h-36.9C231.6,103.4,230.8,102.6,230.8,101.6z M268.4,65.7v10"/>
	</g>
	<path fill="#FF947F" d="M108.1,101.1l-0.7-6.7c-2.9,4.8-9.6,9.7-20,9.7c-17,0-32.1-12.5-32.1-34.1c0-21.5,15.9-34,32.9-34
		c14.8,0,24.6,7.9,28.7,17.7c0.5,1.2-0.1,2.5-1.3,3l-6.1,2.3c-1.1,0.4-2.4-0.1-2.9-1.2c-2.7-6.4-8.9-11.6-18.3-11.6
		c-10.6,0-21.6,7.6-21.6,23.8c0,15.9,10.3,23.9,21.6,23.9c13.2,0,18.1-9,18.7-14.6H87c-1,0-1.8-0.8-1.8-1.8v-6.1
		c0-1,0.8-1.8,1.8-1.8h27.6c1.4,0,2.6,1.2,2.6,2.6v28.7c0,1-0.8,1.8-1.8,1.8h-5.6C108.9,102.6,108.2,102,108.1,101.1z"/>
	<path fill="#FF947F" d="M88.2,36c-15.6,0-30.4,10.7-32.6,29.2c-0.1,1.1,0.8,2.1,1.9,2.1h7.5c1,0,1.8-0.7,1.9-1.6
		c1.8-13.2,11.8-19.5,21.4-19.5c9.4,0,15.6,5.1,18.3,11.6c0.5,1.1,1.8,1.7,2.9,1.2l6.1-2.3c1.2-0.5,1.8-1.8,1.3-3
		C112.7,43.9,102.9,36,88.2,36z"/>
	<g>
		<path fill="#FF4E2A" d="M415,47.7v52.8c0,1.2-0.9,2.1-2.1,2.1H406c-1.2,0-2.1-0.9-2.1-2.1V47.7h-19.1c-1.2,0-2.1-0.9-2.1-2.1v-6.2
			c0-1.2,0.9-2.1,2.1-2.1h49.3c1.2,0,2.1,0.9,2.1,2.1v6.2c0,1.2-0.9,2.1-2.1,2.1H415z"/>
		<path fill="#FF947F" d="M414.9,47.7h-11.1v53.6c0,1.2,0.9,2.1,2.1,2.1h6.9c1.2,0,2.1-0.9,2.1-2.1V47.7z"/>
	</g>
	<path fill="#FF947F" d="M232.5,103.4h36.9c0.9,0,1.6-0.7,1.6-1.6v-7c0-0.9-0.7-1.6-1.6-1.6h-36.9c-1,0-1.8,0.8-1.8,1.8v6.7
		C230.8,102.6,231.6,103.4,232.5,103.4z"/>
	<path fill="#FF947F" d="M230.8,49.5v50.7c0,1,0.8,1.8,1.8,1.8h9.3V49.9c0-1.2-1-2.2-2.2-2.2h-7.1C231.6,47.7,230.8,48.5,230.8,49.5
		z"/>
	<g>
		<defs>
			<polygon id="SVGID_5_" points="597.4,82.9 560.4,82.7 547.4,55.7 554.4,22.7 606.4,22.7 			"/>
		</defs>
		<clipPath id="SVGID_6_">
			<use xlink:href="#SVGID_5_"  overflow="visible"/>
		</clipPath>
		<path clip-path="url(#SVGID_6_)" fill="#FF4E2A" d="M557.3,101.6V39.9c0-1,0.8-1.8,1.8-1.8H596c0.9,0,1.6,0.7,1.6,1.6v7
			c0,0.9-0.7,1.6-1.6,1.6h-27.7v17.3h24.9c0.9,0,1.6,0.7,1.6,1.6v6.8c0,0.9-0.7,1.6-1.6,1.6h-24.9v17.3H596c0.9,0,1.6,0.7,1.6,1.6v7
			c0,0.9-0.7,1.6-1.6,1.6h-36.9C558.1,103.4,557.3,102.6,557.3,101.6z M594.9,65.7v10"/>
	</g>
	<path fill="#FF947F" d="M559,103.4h36.9c0.9,0,1.6-0.7,1.6-1.6v-7c0-0.9-0.7-1.6-1.6-1.6H559c-1,0-1.8,0.8-1.8,1.8v6.7
		C557.2,102.6,558,103.4,559,103.4z"/>
	<path fill="#FF947F" d="M557.2,49.5v50.7c0,1,0.8,1.8,1.8,1.8h9.3V49.9c0-1.2-1-2.2-2.2-2.2H559C558,47.7,557.2,48.5,557.2,49.5z"
		/>
	<path fill="#FF947F" d="M172.2,76.9h-8.1v23.5c0,1.3-1,2.3-2.3,2.3h-6.6c-1.3,0-2.3-1-2.3-2.3V40.1c0-1.5,1.2-2.7,2.7-2.7H178
		c12.6,0,20.4,8.7,20.4,19.8c0,9.3-5.6,16.4-14.7,18.6l12.9,23.5c0.8,1.5-0.3,3.4-2,3.4h-7.3c-0.8,0-1.6-0.5-2-1.2L172.2,76.9z
		 M176,67.1c6.8,0,11.2-4,11.2-9.9c0-6.1-4.4-10-11.2-10h-11.9v20H176z"/>
	<path fill="#FF947F" d="M178,37.3h-19.8l3.1,9.4l14.7,0.4c6.8,0,11.2,3.9,11.2,10c0,6-4.4,9.9-11.2,9.9h-11.9v9.8
		c0,0,9.8,0.7,19.6-1.1c9-1.6,14.7-9.3,14.7-18.6C198.4,46.1,190.6,37.3,178,37.3z"/>
	<g>
		<path fill="#FF4E2A" d="M671.6,57.1c-1.2,0.4-2.6-0.3-3-1.5c-1.4-3.7-5-7.8-12.2-7.8c-6.6,0-11.2,4.4-11.2,9.4
			c0,4.1,2.6,7.3,7.6,8.4l9.4,1.9c11.5,2.3,17.7,9.6,17.7,18.8c0,10.1-8.2,19.8-23.1,19.8c-15.2,0-22.9-9-24.9-17.7
			c-0.3-1.3,0.5-2.6,1.7-2.9l5.6-1.6c1.3-0.4,2.7,0.4,3,1.8c1.5,5.8,6.3,10.6,14.5,10.6c7.8,0,11.9-4,11.9-9c0-4.2-3.1-7.6-8.7-8.8
			l-9.2-1.9c-9.9-2-16.6-8.6-16.6-18.3c0-11,10-20,22.2-20c13.7,0,20,7.5,22.2,14.3c0.4,1.3-0.3,2.7-1.6,3.1L671.6,57.1z"/>
		<path fill="#FF947F" d="M656.3,47.8c7.2,0,10.8,4.1,12.2,7.8c0.5,1.2,1.8,1.9,3,1.5l5.3-1.7c1.3-0.4,2-1.8,1.6-3.1
			c-2.2-6.8-8.5-14.3-22.2-14.3c-12.2,0-22.2,9-22.2,20c0,9.8,6.6,16.3,16.6,18.3l3.9,0.8c0.4,0.1,0.8-0.1,1-0.4l5.7-8
			c0.4-0.6,0.1-1.4-0.6-1.5l-7.9-1.6c-5.1-1.1-7.6-4.2-7.6-8.4C645.1,52.2,649.7,47.8,656.3,47.8z"/>
	</g>
	<g>
		<path fill="#FF947F" d="M755.6,57.1c-1.2,0.4-2.6-0.3-3-1.5c-1.4-3.7-5-7.8-12.2-7.8c-6.6,0-11.2,4.4-11.2,9.4
			c0,4.1,2.6,7.3,7.6,8.4l9.4,1.9c11.5,2.3,17.7,9.6,17.7,18.8c0,10.1-8.2,19.8-23.1,19.8c-15.2,0-22.9-9-24.9-17.7
			c-0.3-1.3,0.5-2.6,1.7-2.9l5.6-1.6c1.3-0.4,2.7,0.4,3,1.8c1.5,5.8,6.3,10.6,14.5,10.6c7.8,0,11.9-4,11.9-9c0-4.2-3.1-7.6-8.7-8.8
			l-9.2-1.9c-9.9-2-16.6-8.6-16.6-18.3c0-11,10-20,22.2-20c13.7,0,20,7.5,22.2,14.3c0.4,1.3-0.3,2.7-1.6,3.1L755.6,57.1z"/>
		<path fill="#FF4E2A" d="M740.3,47.8c7.2,0,10.8,4.1,12.2,7.8c0.5,1.2,1.8,1.9,3,1.5l5.3-1.7c1.3-0.4,2-1.8,1.6-3.1
			c-2.2-6.8-8.5-14.3-22.2-14.3c-12.2,0-22.2,9-22.2,20c0,9.8,6.6,16.3,16.6,18.3l3.9,0.8c0.4,0.1,0.8-0.1,1-0.4l5.7-8
			c0.4-0.6,0.1-1.4-0.6-1.5l-7.9-1.6c-5.1-1.1-7.6-4.2-7.6-8.4C729.1,52.2,733.7,47.8,740.3,47.8z"/>
	</g>
	<path fill="#FF4E2A" d="M510.6,84.2l-28.8-45c-0.5-0.8-1.3-1.3-2.4-1.3l-1.6,0l0.1,15.7l31.6,48.5c0.4,0.6,1.1,1,1.8,1h8.1
		c1.2,0,2.2-1,2.2-2.2V39.8c0-1.1-0.9-2-2-2h-7.1c-1.1,0-2,0.9-2,2V84.2z"/>
	<g>
		<path fill="#FF947F" d="M345.5,86h-27.6l-5.6,15.1c-0.3,0.8-1.1,1.3-1.9,1.3h-7.3c-1.4,0-2.4-1.4-1.9-2.8L325,38.4
			c0.3-0.8,1.1-1.3,1.9-1.3h6.3c3.1,0,5.8,1.9,7,4.8l22.5,57.8c0.5,1.3-0.5,2.8-1.9,2.8h-7.7c-0.8,0-1.6-0.5-1.9-1.3L345.5,86z
			 M321.8,75.8h19.9L331.7,49L321.8,75.8z"/>
		<path fill="#FF4E2A" d="M341.7,75.8h-6.3h-13.6l9.9-26.7l3.9,9.7l9.3-4l-6.1-16.4c-0.3-0.8-1.1-1.3-1.9-1.3l-10.1,0
			c-0.8,0-1.6,0.5-1.9,1.3l-23.8,61.3c-0.5,1.3,0.5,2.8,1.9,2.8h7.3c0.8,0,1.6-0.5,1.9-1.3l5.6-15.1h27.6L341.7,75.8z"/>
		<path fill="#FF947F" d="M331.7,49.3l6.4,16.7l9.5-5.3L339,38.2c-0.3-0.8-1.1-1.3-1.9-1.3h-3.4c-1.1,0-2,0.9-2,2V49.3z"/>
	</g>
	<path fill="#FF4E2A" d="M87,79.3h19.8c-0.6,5.6-5.5,14.6-18.7,14.6c-1.3,0-2.6-0.1-3.9-0.3c-0.8-0.1-1.6,0.5-1.6,1.3v7.6
		c0,0.7,0.5,1.3,1.2,1.3c1.2,0.1,2.4,0.2,3.6,0.2c10.4,0,17.1-4.9,20-9.7l0.7,6.7c0.1,0.9,0.9,1.6,1.8,1.6h5.6c1,0,1.8-0.8,1.8-1.8
		V72.2c0-1.4-1.2-2.6-2.6-2.6H87c-1,0-1.8,0.8-1.8,1.8v6.1C85.2,78.5,86,79.3,87,79.3z"/>
	<g>
		<defs>
			<rect id="SVGID_7_" x="456.4" y="27.8" width="21.7" height="84.3"/>
		</defs>
		<clipPath id="SVGID_8_">
			<use xlink:href="#SVGID_7_"  overflow="visible"/>
		</clipPath>
		<path clip-path="url(#SVGID_8_)" fill="#FF947F" d="M509.5,102.1l-31.6-48.5v47.5c0,1.1-0.9,2-2,2h-7.1c-1.1,0-2-0.9-2-2v-61
			c0-1.3,1.1-2.4,2.4-2.4h10.4c0.8,0,1.6,0.4,2,1.1l29,45.2V39.8c0-1.1,0.9-2,2-2h7.1c1.1,0,2,0.9,2,2V101c0,1.2-1,2.2-2.2,2.2h-8.1
			C510.6,103.1,509.9,102.8,509.5,102.1z"/>
	</g>
	<path fill="#FF4E2A" d="M164.1,37.3l-11.1,0v63c0,1.3,1,2.3,2.3,2.3h6.5c1.3,0,2.3-1,2.3-2.3V37.3z"/>
</g>
<rect x="-3086.3" y="7592" fill="#FFFAE5" width="1165.4" height="54.6"/>
<g>
	<text transform="matrix(1 0 0 1 -2949.1143 7620.1948)" fill="#071D26" font-family="'CircularStd-Book'" font-size="12.8748px">© Copyright 2015 Great Minds</text>
</g>
</svg>
