<svg id="Layer_1" data-name="Layer 1" xmlns="http://www.w3.org/2000/svg" xmlns:xlink="http://www.w3.org/1999/xlink" viewBox="0 0 150 35"><defs><style>.cls-1{fill:none;}.cls-2{clip-path:url(#clip-path);}.cls-3{fill:#fff;}.cls-4{opacity:0;}</style><clipPath id="clip-path"><rect class="cls-1" x="10.21" y="12.74" width="129.59" height="9.52"/></clipPath></defs><title>Great Minds_Wordmark_White-box</title><g class="cls-2"><path class="cls-3" d="M137.6,14.52h.2c.24,0,.44-.08.44-.27s-.13-.28-.4-.28l-.24,0Zm0,1.06h-.43V13.72a3.28,3.28,0,0,1,.71-.06,1.17,1.17,0,0,1,.65.14.51.51,0,0,1,.18.41.48.48,0,0,1-.38.43v0a.55.55,0,0,1,.34.46,1.45,1.45,0,0,0,.13.46h-.46a1.63,1.63,0,0,1-.15-.45c0-.21-.15-.3-.39-.3h-.2Zm-1.15-1a1.44,1.44,0,1,0,1.44-1.48,1.44,1.44,0,0,0-1.44,1.48m3.35,0a1.87,1.87,0,0,1-1.91,1.89,1.88,1.88,0,1,1,0-3.75,1.87,1.87,0,0,1,1.91,1.86"/><path class="cls-3" d="M131.27,15.82a2.76,2.76,0,0,0-3-2.21,2.81,2.81,0,0,0-3,2.67,2.5,2.5,0,0,0,2.26,2.43l1.14.21c.55.11.89.41.89.84s-.45.86-1.17.86a1.54,1.54,0,0,1-1.72-1.43l-1.7.41a3.11,3.11,0,0,0,3.4,2.66,2.79,2.79,0,0,0,3.06-2.62,2.6,2.6,0,0,0-2.4-2.5l-1.11-.21c-.57-.1-.82-.39-.82-.79a1,1,0,0,1,1.14-.89,1.26,1.26,0,0,1,1.38,1ZM116,22.08a3.89,3.89,0,0,0,4.18-4.14A3.91,3.91,0,0,0,116,13.78h-3v8.3Zm-1.15-1.74V15.53h1.08a2.19,2.19,0,0,1,2.32,2.41,2.18,2.18,0,0,1-2.32,2.4Zm-7.74,1.74v-8.3h-1.85v5l-3.11-5H99.87v8.3h1.84V16.63l3.42,5.45ZM94,13.78H92.11v8.3H94Zm-7.78,8.3v-8.3H83.66L81.5,19.39l-2.29-5.61H76.8v8.3h1.76V16.65l2.17,5.43h1.49l2.17-5.5v5.5ZM64.6,15.55V13.78h-7v1.77h2.55v6.53H62V15.55Zm-14.83.3,1,2.86h-2ZM52,22.08h2l-3.09-8.3H48.73l-3.13,8.3h1.94l.6-1.68h3.21Zm-11.22,0V20.33H37.31V18.74H40.4V17.11H37.31V15.53h3.41V13.78H35.46v8.3ZM25.86,17.4v-2H27c.76,0,1.17.38,1.17,1s-.41,1-1.17,1ZM28,22.08h2l-1.69-3.36A2.37,2.37,0,0,0,30,16.38a2.53,2.53,0,0,0-2.69-2.6H24v8.3h1.85V19h.66Zm-9.65,0V17.65H14.13v1.57h2.49a2,2,0,0,1-2.05,1.36,2.43,2.43,0,0,1-2.49-2.64,2.41,2.41,0,0,1,2.45-2.6,2,2,0,0,1,2.06,1.45l1.78-.62a3.74,3.74,0,0,0-3.84-2.56,4.21,4.21,0,0,0-4.32,4.33,4.12,4.12,0,0,0,4.2,4.32,2.74,2.74,0,0,0,2.33-1l.12.84Z"/></g><rect class="cls-4" width="150" height="35"/></svg>