<svg id="Layer_1" data-name="Layer 1" xmlns="http://www.w3.org/2000/svg" viewBox="0 0 211.4 144.67"><defs><style>.cls-1{fill:#fff;}</style></defs><title>1_Great Minds_Logo_White-nomargin</title><path class="cls-1" d="M31.31,124H30.18v2.12h1.13c.8,0,1.22-.45,1.22-1.06S32.11,124,31.31,124"/><path class="cls-1" d="M123.58,124.15h-1.12v5h1.12a2.53,2.53,0,0,0,0-5"/><polygon class="cls-1" points="53.48 127.49 55.58 127.49 54.55 124.48 53.48 127.49 53.48 127.49"/><path class="cls-1" d="M201.62,0H94.23a1.58,1.58,0,0,0-1.57,1.59V108.68H0v36H153.33V111.86h48.29a1.58,1.58,0,0,0,1.57-1.59V1.59A1.58,1.58,0,0,0,201.62,0m-183,129.45A2.06,2.06,0,0,0,20.76,128H18.17v-1.64h4.39V131H21l-.12-.89a2.84,2.84,0,0,1-2.42,1.07,4.32,4.32,0,0,1-4.38-4.54,4.41,4.41,0,0,1,4.5-4.55,3.87,3.87,0,0,1,4,2.7l-1.85.65A2.08,2.08,0,0,0,18.58,124a2.76,2.76,0,0,0,.05,5.5M32.41,131l-1.55-3.25h-.68V131H28.26v-8.72h3.42a2.64,2.64,0,0,1,2.8,2.73,2.49,2.49,0,0,1-1.7,2.46L34.53,131Zm13,0H39.91v-8.72h5.47v1.83H41.83v1.66h3.22v1.71H41.83v1.67h3.56V131Zm11.42,0-.62-1.78H52.85L52.23,131h-2l3.25-8.72h2.23L58.9,131Zm12.69-6.87H66.83V131H64.91v-6.87H62.25v-1.85H69.5v1.85Zm24,6.87H91.6v-5.78L89.35,131H87.79l-2.25-5.71V131H83.71v-8.72h2.51l2.37,5.89,2.26-5.89h2.64V131Zm7.83,0H99.37v-8.72h1.95V131Zm13.34,0h-2l-3.56-5.74V131h-1.91v-8.72h2.34l3.24,5.3v-5.3h1.92V131Zm9,0h-3.12v-8.72h3.13a4.36,4.36,0,0,1,0,8.72m12.61.18a3.24,3.24,0,0,1-3.54-2.79l1.77-.43a1.61,1.61,0,0,0,1.79,1.5c.76,0,1.22-.37,1.22-.91s-.36-.76-.93-.87l-1.18-.23a2.6,2.6,0,0,1-2.35-2.55,2.93,2.93,0,0,1,3.09-2.81,2.88,2.88,0,0,1,3.16,2.33l-1.73.49a1.31,1.31,0,0,0-1.44-1.1,1.06,1.06,0,0,0-1.18.94c0,.42.25.72.85.84l1.16.22a2.7,2.7,0,0,1,2.5,2.62,2.92,2.92,0,0,1-3.19,2.75M200,108.68H95.81V3.18H200v105.5Z"/><path class="cls-1" d="M211.4,107.23a2.84,2.84,0,1,1-2.83-2.76,2.77,2.77,0,0,1,2.83,2.76Zm-5,0a2.13,2.13,0,1,0,2.13-2.21,2.13,2.13,0,0,0-2.13,2.21Zm1.7,1.45h-.64v-2.76a4.78,4.78,0,0,1,1.06-.09,1.8,1.8,0,0,1,1,.2.78.78,0,0,1,.27.61.71.71,0,0,1-.58.64v0a.82.82,0,0,1,.51.68,2,2,0,0,0,.2.69h-.69A2.79,2.79,0,0,1,209,108c0-.3-.22-.43-.57-.43h-.3v1.11Zm0-1.57h.31c.35,0,.64-.12.64-.4s-.19-.42-.59-.42a1.48,1.48,0,0,0-.36,0v.79Z"/></svg>