<?xml version="1.0" encoding="utf-8"?>
<!-- Generator: Adobe Illustrator 18.1.1, SVG Export Plug-In . SVG Version: 6.00 Build 0)  -->
<svg version="1.1" id="Layer_1" xmlns:dc="http://purl.org/dc/elements/1.1/" xmlns:xl="http://www.w3.org/1999/xlink"
	 xmlns="http://www.w3.org/2000/svg" xmlns:xlink="http://www.w3.org/1999/xlink" x="0px" y="0px" viewBox="0 0 1224 792"
	 enable-background="new 0 0 1224 792" xml:space="preserve">
<title>airplane</title>
<path fill="#CECECE" d="M260.3,145.5c1.1-3.8,4.9-6.5,8.7-7.1l730.7-90c4.3-0.5,9.2,2.2,10.8,6c1.6,4.3,0.5,9.2-2.7,12.5L576,440.6
	c-1.6,1.6-3.8,2.2-6.5,2.7c-2.7,0-5.4-1.1-7.6-2.7l-91.1-86.8l-86.3,46.1l0,0c-2.7,1.1-5.4,1.6-8.1,0.5c-4.3-1.1-7.1-4.9-7.1-9.2
	l-7.6-141l-98.2-93.3C260.3,153.6,259.2,149.2,260.3,145.5 M569.5,418.3l370-320.1L461,314.7L569.5,418.3z M454.5,338l-11.4-10.8
	l-23.3,29.3L454.5,338z M388.4,361.9l45.6-57c1.1-1.1,2.2-2.2,3.8-2.7l0,0L857,112.4L382.4,252.9L388.4,361.9z M374.8,233.3
	L876,85.2L294,156.8L374.8,233.3z M740.4,646.1L740.4,646.1c16.3-0.5,30.4,0,43.9,2.2c4.9,0.5,8.7,4.9,9.2,9.8c0,0.5,0,1.6,0,2.2
	c-0.5,4.9-4.9,8.7-9.8,9.2c-0.5,0-1.1,0-2.2,0c-11.9-2.2-25.5-2.7-40.1-2.2c-6,0-10.8-4.3-10.8-10.3
	C730.6,651,735,646.1,740.4,646.1 M655.8,658.6c14.6-3.3,28.2-6,41.2-8.1c0.5,0,0.5,0,0.5,0h0.5c6-0.5,10.8,3.3,11.9,9.2
	c0,0.5,0,0.5,0,1.1c0.5,5.4-3.8,10.3-9.2,10.8c-12.5,2.2-26,4.3-40.7,7.6c-0.5,0-1.1,0-1.6,0c-5.4,0.5-9.8-3.3-10.8-8.1
	c0-0.5,0-1.1,0-1.6C647.1,664,650.4,659.7,655.8,658.6 M284.7,473.1c0,1.6-0.5,3.8-1.1,5.4c-6,11.4-10.3,23.9-13.6,36.9
	c-1.1,4.3-4.9,7.6-9.8,8.1c-1.1,0-2.2,0-2.7,0c-4.3-1.1-7.6-4.9-8.1-9.8c0-1.1,0-2.2,0-3.3c3.8-14.6,8.7-28.8,15.7-41.8
	c2.7-4.9,9.2-7.1,14.1-4.3C282.6,466,284.7,469.8,284.7,473.1 M827.8,660.3c14.1,6,26.6,14.1,38,23.9c2.2,1.6,3.3,4.3,3.8,7.1
	c0,2.7-1.1,5.4-2.7,7.6c-1.6,2.2-4.3,3.3-7.1,3.3s-5.4-0.5-7.6-2.7c-9.8-8.7-20.6-15.2-32.5-20.6c-3.8-1.6-6-5.4-6.5-9.2
	c0-1.6,0-3.3,1.1-4.3C816.4,660.8,822.9,658.1,827.8,660.3 M573.3,679.2L573.3,679.2c11.4-3.3,26-7.1,40.7-10.8c0,0,0,0,0.5,0
	c5.4-1.6,11.4,2.2,13,7.6c0,0.5,0.5,1.6,0.5,2.2c0,4.9-3.3,9.2-8.1,10.8l0,0c-10.8,2.7-22.2,6-32.5,8.7l-7.6,2.2c-0.5,0-1.6,0-2.2,0
	c-4.9,0-9.2-2.7-10.8-7.6c0-0.5-0.5-1.6-0.5-2.2C565.2,685.2,568.5,680.9,573.3,679.2 M336.8,688.5l1.6,1.1
	c10.3,6.5,21.2,11.4,33.6,14.6c4.3,1.1,7.6,4.9,7.6,9.8c0,1.1,0,2.2,0,3.3c-1.1,4.3-4.9,7.6-9.8,8.1c-1.1,0-2.2,0-3.3-0.5
	C352,721,339,715.6,327.1,708c-0.5,0-0.5-0.5-1.1-0.5l-1.1-0.5c-2.7-1.6-4.3-4.9-4.9-8.1c0-2.2,0.5-4.3,1.6-6.5
	C324.9,686.8,331.9,685.7,336.8,688.5 M288,440c0-2.7,1.1-5.4,2.7-7.6c10.8-11.4,22.8-20.6,36.3-27.7c4.9-2.7,11.4-0.5,14.1,4.9
	c2.7,5.4,0.5,11.4-4.3,14.1l0,0c-10.8,5.4-21.2,13.6-30.4,23.3c-1.6,2.2-4.3,3.3-7.1,3.3s-5.4-1.1-7.6-2.7
	C289.6,445.4,288,442.7,288,440 M492,699.9L492,699.9c11.9-2.7,25-5.4,40.7-9.8c5.4-1.6,11.4,2.2,13,7.6c0,0.5,0.5,1.6,0.5,2.2
	c0,4.9-3.3,9.2-8.1,10.8c-15.2,3.8-28.2,7.1-40.7,9.8c-0.5,0-0.5,0-1.1,0l0,0c-0.5,0-1.1,0-1.6,0c-5.4,0.5-9.8-3.3-10.8-8.1
	c0-0.5,0-1.1,0-1.6C483.8,705.8,487.1,700.9,492,699.9 M269,627.2c4.9-2.7,11.4-0.5,14.1,4.3l0,0c6,11.4,13.6,22.2,22.8,32
	c1.6,1.6,2.7,4.3,2.7,6.5c0,3.3-1.1,6.5-3.3,8.1c-1.6,1.6-4.3,2.7-6.5,2.7c-3.3,0-6-1.1-8.1-3.3c-10.3-11.4-19-23.3-26-36.3
	c-0.5-1.6-1.1-2.7-1.1-4.3C263.6,632.6,265.8,628.8,269,627.2 M244.1,555.6V555c0,0,0,0,0-0.5c0-5.4,4.9-10.3,10.3-10.3
	s10.3,4.3,10.3,9.8v0.5c0,2.7,0,6.5,0,9.8c0.5,9.8,2.2,20.1,4.3,29.3c0,0.5,0.5,1.6,0,2.2c0,4.9-3.3,9.2-8.1,10.3
	c-0.5,0-1.1,0-2.2,0c-4.9,0-9.2-3.3-10.8-8.1l0,0v-0.5c-2.7-10.8-4.3-21.7-4.9-32.5C244.1,562.6,244.1,559.4,244.1,555.6
	 M410.1,709.1c0.5,0,0.5,0,1.1,0c13,0,25.5-0.5,40.7-2.2c5.4-0.5,10.8,3.3,11.9,9.2v0.5c0.5,5.4-3.3,10.8-9.2,11.4
	c-8.7,1.1-16.8,1.6-24.4,2.2c-6.5,0.5-13,0.5-19,0.5c-5.4,0-10.3-4.3-10.3-10.3v-0.5C400.3,714,404.6,709.1,410.1,709.1"/>
</svg>
